<svg width="313" height="332" viewBox="0 0 313 332" fill="none" xmlns="http://www.w3.org/2000/svg">
<g filter="url(#filter0_f_24_918)">
<path d="M156.578 53.409C130.665 88.5921 126.172 136.608 149.031 176.201C171.89 215.793 215.719 235.91 259.145 231.06C249.912 243.597 237.958 254.504 223.554 262.821C168.725 294.476 99.1427 276.605 68.1383 222.904C37.134 169.203 56.4479 100.007 111.277 68.3517C125.682 60.0353 141.104 55.1372 156.578 53.409Z" fill="#FFEE94"/>
</g>
<g filter="url(#filter1_i_24_918)">
<path d="M154.162 68.2349C130.508 100.351 126.406 144.181 147.273 180.323C168.139 216.465 208.148 234.828 247.789 230.4C239.36 241.844 228.449 251.801 215.3 259.393C165.25 288.289 101.733 271.975 73.4314 222.955C45.1296 173.935 62.76 110.771 112.81 81.8751C125.959 74.2835 140.037 69.8124 154.162 68.2349Z" fill="url(#paint0_linear_24_918)"/>
</g>
<defs>
<filter id="filter0_f_24_918" x="0.345215" y="0.408936" width="311.8" height="331.066" filterUnits="userSpaceOnUse" color-interpolation-filters="sRGB">
<feFlood flood-opacity="0" result="BackgroundImageFix"/>
<feBlend mode="normal" in="SourceGraphic" in2="BackgroundImageFix" result="shape"/>
<feGaussianBlur stdDeviation="26.5" result="effect1_foregroundBlur_24_918"/>
</filter>
<filter id="filter1_i_24_918" x="59.9277" y="68.2349" width="187.861" height="209.448" filterUnits="userSpaceOnUse" color-interpolation-filters="sRGB">
<feFlood flood-opacity="0" result="BackgroundImageFix"/>
<feBlend mode="normal" in="SourceGraphic" in2="BackgroundImageFix" result="shape"/>
<feColorMatrix in="SourceAlpha" type="matrix" values="0 0 0 0 0 0 0 0 0 0 0 0 0 0 0 0 0 0 127 0" result="hardAlpha"/>
<feOffset dy="4"/>
<feGaussianBlur stdDeviation="4"/>
<feComposite in2="hardAlpha" operator="arithmetic" k2="-1" k3="1"/>
<feColorMatrix type="matrix" values="0 0 0 0 1 0 0 0 0 1 0 0 0 0 1 0 0 0 0.55 0"/>
<feBlend mode="normal" in2="shape" result="effect1_innerShadow_24_918"/>
</filter>
<linearGradient id="paint0_linear_24_918" x1="159.313" y1="51.2026" x2="121.761" y2="278.582" gradientUnits="userSpaceOnUse">
<stop stop-color="#FFEE94"/>
<stop offset="1" stop-color="#FF9900"/>
</linearGradient>
</defs>
</svg>
